<?xml version="1.0" encoding="UTF-8" standalone="no"?>
<svg
   xmlns:dc="http://purl.org/dc/elements/1.1/"
   xmlns:cc="http://creativecommons.org/ns#"
   xmlns:rdf="http://www.w3.org/1999/02/22-rdf-syntax-ns#"
   xmlns:svg="http://www.w3.org/2000/svg"
   xmlns="http://www.w3.org/2000/svg"
   xmlns:sodipodi="http://sodipodi.sourceforge.net/DTD/sodipodi-0.dtd"
   xmlns:inkscape="http://www.inkscape.org/namespaces/inkscape"
   style="shape-rendering:crispEdges"
   version="1.1"
   id="svg3336"
   viewBox="0 0 500 500"
   height="800"
   width="1000"
   inkscape:version="0.91 r13725"
   sodipodi:docname="drawing2.svg">
  <sodipodi:namedview
     pagecolor="#ffffff"
     bordercolor="#666666"
     borderopacity="1"
     objecttolerance="10"
     gridtolerance="10"
     guidetolerance="10"
     inkscape:pageopacity="0"
     inkscape:pageshadow="2"
     inkscape:window-width="753"
     inkscape:window-height="716"
     id="namedview14"
     showgrid="false"
     inkscape:zoom="0.472"
     inkscape:cx="-63.40678"
     inkscape:cy="250"
     inkscape:window-x="566"
     inkscape:window-y="24"
     inkscape:window-maximized="0"
     inkscape:current-layer="svg3336"
     showborder="true" />
  <defs
     id="defs3338" />
  <metadata
     id="metadata3341">
    <rdf:RDF>
      <cc:Work
         rdf:about="">
        <dc:format>image/svg+xml</dc:format>
        <dc:type
           rdf:resource="http://purl.org/dc/dcmitype/StillImage" />
        <dc:title></dc:title>
      </cc:Work>
    </rdf:RDF>
  </metadata>
  <g
     transform="matrix(0.93598777,0,0,0.93598777,6.4143486,-476.80391)"
     id="layer1"
     style="opacity:1;">
    <g
       transform="matrix(2.4868274,0,0,2.7326128,-72.181731,306.68765)"
       style="font-style:normal;font-weight:normal;font-size:180px;line-height:125%;font-family:sans-serif;letter-spacing:0px;word-spacing:0px;fill:#000000;fill-opacity:1;stroke:none;stroke-width:1px;stroke-linecap:butt;stroke-linejoin:miter;stroke-opacity:1"
       id="flowRoot3344">
      <path
         d="m 79.314453,203.11797 -31.728516,0 0,-4.30664 q 0,-7.20703 2.900391,-12.74414 2.900391,-5.625 12.216797,-14.23828 l 5.625,-5.09765 q 5.009766,-4.57032 7.294922,-8.61329 2.373047,-4.04296 2.373047,-8.08593 0,-6.15235 -4.21875,-9.58008 Q 69.558594,136.93633 62,136.93633 q -7.119141,0 -15.380859,2.98828 -8.261719,2.9004 -17.226563,8.70118 l 0,-27.59766 q 10.634766,-3.69141 19.423828,-5.44922 8.789063,-1.75781 16.962891,-1.75781 21.445312,0 32.695312,8.78906 11.250001,8.70117 11.250001,25.48828 0,8.61328 -3.42773,15.46875 -3.42774,6.76758 -11.689458,14.58985 l -5.625,5.00976 q -5.976563,5.44922 -7.822266,8.78906 -1.845703,3.25196 -1.845703,7.20704 l 0,3.95507 z m -31.728516,13.00782 31.728516,0 0,31.28906 -31.728516,0 0,-31.28906 z"
         style="font-style:normal;font-variant:normal;font-weight:bold;font-stretch:normal;font-family:sans-serif;-inkscape-font-specification:'sans-serif Bold'"
         id="path3342" />
    </g>
    <g
       transform="translate(0,552.3622)"
       style="font-style:normal;font-weight:normal;font-size:40px;line-height:125%;font-family:sans-serif;letter-spacing:0px;word-spacing:0px;fill:#000000;fill-opacity:1;stroke:none;stroke-width:1px;stroke-linecap:butt;stroke-linejoin:miter;stroke-opacity:1"
       id="flowRoot3352" />
  </g>
</svg>
